<?xml version="1.0" encoding="UTF-8"?>
<!DOCTYPE svg PUBLIC "-//W3C//DTD SVG 1.1//EN" "http://www.w3.org/Graphics/SVG/1.1/DTD/svg11.dtd">
<svg xmlns="http://www.w3.org/2000/svg" version="1.1" width="292px" height="300px" style="shape-rendering:geometricPrecision; text-rendering:geometricPrecision; image-rendering:optimizeQuality; fill-rule:evenodd; clip-rule:evenodd" xmlns:xlink="http://www.w3.org/1999/xlink">
<g><path style="opacity:0.651" fill="#9ed7f1" d="M 149.5,11.5 C 147.833,11.5 146.167,11.5 144.5,11.5C 136.517,10.8345 128.517,10.5012 120.5,10.5C 120.5,10.1667 120.5,9.83333 120.5,9.5C 130.396,8.37158 140.063,9.03825 149.5,11.5 Z"/></g>
<g><path style="opacity:0.671" fill="#b2ddf2" d="M 120.5,9.5 C 120.5,9.83333 120.5,10.1667 120.5,10.5C 114.494,11.8351 108.494,13.1684 102.5,14.5C 108.131,11.9226 114.131,10.256 120.5,9.5 Z"/></g>
<g><path style="opacity:0.78" fill="#a9dbf1" d="M 154.5,12.5 C 157.067,12.7215 159.401,13.3882 161.5,14.5C 159.473,14.6621 157.473,14.4955 155.5,14C 154.944,13.6174 154.611,13.1174 154.5,12.5 Z"/></g>
<g><path style="opacity:1" fill="#0db4f9" d="M 120.5,10.5 C 128.517,10.5012 136.517,10.8345 144.5,11.5C 145.398,12.1577 146.398,12.8243 147.5,13.5C 146.975,14.1924 146.308,14.6924 145.5,15C 149.5,15.3333 153.5,15.6667 157.5,16C 146.191,15.9039 135.024,16.7372 124,18.5C 120.681,15.6827 116.847,14.8493 112.5,16C 111.549,16.7175 111.383,17.5509 112,18.5C 116.439,20.3392 116.272,22.0059 111.5,23.5C 110.5,23.3333 109.5,23.1667 108.5,23C 109.337,21.9887 109.67,20.8221 109.5,19.5C 106.311,18.4854 103.144,18.4854 100,19.5C 98.6244,19.3158 97.7911,18.6491 97.5,17.5C 99.674,17.2503 101.341,16.2503 102.5,14.5C 108.494,13.1684 114.494,11.8351 120.5,10.5 Z"/></g>
<g><path style="opacity:0.745" fill="#a1d4f0" d="M 102.5,14.5 C 101.341,16.2503 99.674,17.2503 97.5,17.5C 96.8333,17.5 96.1667,17.5 95.5,17.5C 97.5093,15.9348 99.8427,14.9348 102.5,14.5 Z"/></g>
<g><path style="opacity:0.549" fill="#b7dbee" d="M 95.5,17.5 C 95.0269,18.9063 94.0269,19.573 92.5,19.5C 92.9731,18.0937 93.9731,17.427 95.5,17.5 Z"/></g>
<g><path style="opacity:1" fill="#4fbef4" d="M 144.5,11.5 C 146.167,11.5 147.833,11.5 149.5,11.5C 151.415,11.2155 153.081,11.5489 154.5,12.5C 154.611,13.1174 154.944,13.6174 155.5,14C 157.473,14.4955 159.473,14.6621 161.5,14.5C 161.577,15.7498 162.244,16.5831 163.5,17C 159.848,17.4986 156.182,17.6653 152.5,17.5C 139.316,17.2708 126.649,19.6042 114.5,24.5C 112.833,24.5 111.167,24.5 109.5,24.5C 109.5,25.5 109.5,26.5 109.5,27.5C 109.158,28.3382 108.492,28.6716 107.5,28.5C 106.833,28.5 106.167,28.5 105.5,28.5C 105.773,26.549 105.107,25.049 103.5,24C 97.4627,24.4574 91.4627,24.6241 85.5,24.5C 85.5,24.1667 85.5,23.8333 85.5,23.5C 85.8417,22.6618 86.5084,22.3284 87.5,22.5C 89.8477,22.4077 91.5144,21.4077 92.5,19.5C 94.0269,19.573 95.0269,18.9063 95.5,17.5C 96.1667,17.5 96.8333,17.5 97.5,17.5C 97.7911,18.6491 98.6244,19.3158 100,19.5C 103.144,18.4854 106.311,18.4854 109.5,19.5C 109.67,20.8221 109.337,21.9887 108.5,23C 109.5,23.1667 110.5,23.3333 111.5,23.5C 116.272,22.0059 116.439,20.3392 112,18.5C 111.383,17.5509 111.549,16.7175 112.5,16C 116.847,14.8493 120.681,15.6827 124,18.5C 135.024,16.7372 146.191,15.9039 157.5,16C 153.5,15.6667 149.5,15.3333 145.5,15C 146.308,14.6924 146.975,14.1924 147.5,13.5C 146.398,12.8243 145.398,12.1577 144.5,11.5 Z"/></g>
<g><path style="opacity:0.8" fill="#a4d5ed" d="M 161.5,14.5 C 165.901,15.4056 169.901,17.0723 173.5,19.5C 173.672,20.4916 173.338,21.1583 172.5,21.5C 165.736,20.0138 159.069,18.6804 152.5,17.5C 156.182,17.6653 159.848,17.4986 163.5,17C 162.244,16.5831 161.577,15.7498 161.5,14.5 Z"/></g>
<g><path style="opacity:0.733" fill="#c6e2f0" d="M 173.5,19.5 C 177.691,20.2622 181.358,22.0956 184.5,25C 182.833,25.6667 181.167,25.6667 179.5,25C 177.03,23.9786 174.696,22.8119 172.5,21.5C 173.338,21.1583 173.672,20.4916 173.5,19.5 Z"/></g>
<g><path style="opacity:0.647" fill="#9ed4ec" d="M 92.5,19.5 C 91.5144,21.4077 89.8477,22.4077 87.5,22.5C 88.6594,20.7497 90.326,19.7497 92.5,19.5 Z"/></g>
<g><path style="opacity:0.835" fill="#ddf0f9" d="M 57.5,35.5 C 60.0751,31.5812 63.0751,27.9145 66.5,24.5C 66.3333,24.1667 66.1667,23.8333 66,23.5C 64.549,25.4641 62.7157,26.7974 60.5,27.5C 62.1271,25.3702 63.9604,23.3702 66,21.5C 66.3333,21.8333 66.6667,22.1667 67,22.5C 70.2449,18.6307 74.0782,16.6307 78.5,16.5C 71.2069,22.4573 64.2069,28.7906 57.5,35.5 Z"/></g>
<g><path style="opacity:0.937" fill="#94ceee" d="M 114.5,24.5 C 113.035,25.7368 111.368,26.7368 109.5,27.5C 109.5,26.5 109.5,25.5 109.5,24.5C 111.167,24.5 112.833,24.5 114.5,24.5 Z"/></g>
<g><path style="opacity:0.753" fill="#a9d8f0" d="M 85.5,23.5 C 85.5,23.8333 85.5,24.1667 85.5,24.5C 83.4268,26.5798 81.0934,28.2464 78.5,29.5C 80.2393,26.7573 82.5726,24.7573 85.5,23.5 Z"/></g>
<g><path style="opacity:0.937" fill="#84c9ee" d="M 105.5,28.5 C 106.167,28.5 106.833,28.5 107.5,28.5C 105.45,30.5475 103.117,32.2141 100.5,33.5C 100.5,32.5 100.5,31.5 100.5,30.5C 102.401,30.7535 103.067,30.4202 102.5,29.5C 102.369,28.7611 102.536,28.0944 103,27.5C 103.671,28.2524 104.504,28.5858 105.5,28.5 Z"/></g>
<g><path style="opacity:0.524" fill="#a4d7e7" d="M 128.5,28.5 C 128.082,29.2216 127.416,29.7216 126.5,30C 133.425,30.0066 140.092,30.8399 146.5,32.5C 140.862,31.7803 135.196,31.447 129.5,31.5C 126.482,31.6646 123.482,31.498 120.5,31C 121.737,30.7679 122.737,30.2679 123.5,29.5C 125.042,28.6993 126.708,28.366 128.5,28.5 Z"/></g>
<g><path style="opacity:0.259" fill="#ebf4f8" d="M 60.5,27.5 C 58.5,30.1667 56.1667,32.5 53.5,34.5C 54.8333,31.1667 57.1667,28.8333 60.5,27.5 Z"/></g>
<g><path style="opacity:0.616" fill="#d5e9f2" d="M 123.5,29.5 C 122.737,30.2679 121.737,30.7679 120.5,31C 123.482,31.498 126.482,31.6646 129.5,31.5C 123.368,33.113 117.035,33.9464 110.5,34C 114.806,32.1766 119.14,30.6766 123.5,29.5 Z"/></g>
<g><path style="opacity:1" fill="#5db8dd" d="M 167.5,31.5 C 168.99,33.2798 170.99,33.9465 173.5,33.5C 177.593,34.3824 181.26,36.049 184.5,38.5C 182.085,38.3735 179.751,38.2068 177.5,38C 179.052,39.7116 180.385,41.545 181.5,43.5C 180.833,43.5 180.167,43.5 179.5,43.5C 173.162,40.8321 166.828,38.1654 160.5,35.5C 159.01,33.7202 157.01,33.0535 154.5,33.5C 151.763,33.5987 149.096,33.2653 146.5,32.5C 140.092,30.8399 133.425,30.0066 126.5,30C 127.416,29.7216 128.082,29.2216 128.5,28.5C 141.812,26.5832 154.812,27.5832 167.5,31.5 Z"/></g>
<g><path style="opacity:0.471" fill="#badef0" d="M 78.5,29.5 C 77.0892,31.914 75.0892,33.5806 72.5,34.5C 73.9108,32.086 75.9108,30.4194 78.5,29.5 Z"/></g>
<g><path style="opacity:0.596" fill="#b3d8ec" d="M 167.5,31.5 C 169.786,31.595 171.786,32.2616 173.5,33.5C 170.99,33.9465 168.99,33.2798 167.5,31.5 Z"/></g>
<g><path style="opacity:0.773" fill="#b1dcec" d="M 154.5,33.5 C 157.01,33.0535 159.01,33.7202 160.5,35.5C 158.302,35.1249 156.302,34.4582 154.5,33.5 Z"/></g>
<g><path style="opacity:0.4" fill="#cce6f4" d="M 72.5,34.5 C 72.573,36.0269 71.9063,37.0269 70.5,37.5C 70.427,35.9731 71.0937,34.9731 72.5,34.5 Z"/></g>
<g><path style="opacity:1" fill="#42bcf1" d="M 102.5,29.5 C 103.067,30.4202 102.401,30.7535 100.5,30.5C 100.5,31.5 100.5,32.5 100.5,33.5C 100.5,34.1667 100.167,34.5 99.5,34.5C 98.1667,35.1667 97.1667,36.1667 96.5,37.5C 96.5,38.1667 96.1667,38.5 95.5,38.5C 93.086,39.9108 91.4194,41.9108 90.5,44.5C 90.0679,45.7095 89.4013,46.7095 88.5,47.5C 88.1667,47.5 87.8333,47.5 87.5,47.5C 87.6741,45.139 88.0074,42.8056 88.5,40.5C 89.5,40.5 90.5,40.5 91.5,40.5C 91.2797,36.4099 92.9464,34.4099 96.5,34.5C 96.8333,33.8333 97.1667,33.1667 97.5,32.5C 95.9756,30.2076 96.3089,28.2076 98.5,26.5C 99.6956,26.8457 99.6956,27.3457 98.5,28C 99.9007,28.4101 101.234,28.9101 102.5,29.5 Z"/></g>
<g><path style="opacity:0.008" fill="#ecf5fa" d="M 99.5,34.5 C 99.5,36.5 98.5,37.5 96.5,37.5C 97.1667,36.1667 98.1667,35.1667 99.5,34.5 Z"/></g>
<g><path style="opacity:1" fill="#afe3f6" d="M 57.5,35.5 C 55.4884,38.205 53.4884,40.8717 51.5,43.5C 51.7019,39.1547 50.3686,38.488 47.5,41.5C 48.7573,38.5726 50.7573,36.2393 53.5,34.5C 56.1667,32.5 58.5,30.1667 60.5,27.5C 62.7157,26.7974 64.549,25.4641 66,23.5C 66.1667,23.8333 66.3333,24.1667 66.5,24.5C 63.0751,27.9145 60.0751,31.5812 57.5,35.5 Z"/></g>
<g><path style="opacity:1" fill="#10b6fa" d="M 105.5,28.5 C 104.504,28.5858 103.671,28.2524 103,27.5C 102.536,28.0944 102.369,28.7611 102.5,29.5C 101.234,28.9101 99.9007,28.4101 98.5,28C 99.6956,27.3457 99.6956,26.8457 98.5,26.5C 96.3089,28.2076 95.9756,30.2076 97.5,32.5C 97.1667,33.1667 96.8333,33.8333 96.5,34.5C 92.9464,34.4099 91.2797,36.4099 91.5,40.5C 90.5,40.5 89.5,40.5 88.5,40.5C 88.0074,42.8056 87.6741,45.139 87.5,47.5C 86.3995,48.6049 85.7329,49.9382 85.5,51.5C 85.6716,52.4916 85.3382,53.1583 84.5,53.5C 83.0937,53.9731 82.427,54.9731 82.5,56.5C 81.6743,59.4848 80.341,62.1515 78.5,64.5C 77.0687,65.7804 76.4021,67.4471 76.5,69.5C 74.8564,69.8102 73.8564,70.8102 73.5,72.5C 71.6122,74.9878 70.9455,77.9878 71.5,81.5C 68.5525,81.2229 65.7191,81.5562 63,82.5C 63.4566,92.0131 63.2899,101.513 62.5,111C 63.0931,114.151 63.5931,117.318 64,120.5C 64.9023,118.073 65.7356,115.74 66.5,113.5C 66.665,116.85 66.4983,120.183 66,123.5C 64.9887,124.337 63.8221,124.67 62.5,124.5C 62.7662,120.395 62.2662,116.395 61,112.5C 60.586,112.957 60.086,113.291 59.5,113.5C 58.5052,118.792 58.1718,124.125 58.5,129.5C 57.5,129.5 56.5,129.5 55.5,129.5C 55.7373,130.791 55.404,131.791 54.5,132.5C 54.719,131.325 54.3857,130.325 53.5,129.5C 52.8333,132.167 52.1667,134.833 51.5,137.5C 50.7124,138.77 49.7124,139.77 48.5,140.5C 47.7814,138.236 47.448,135.903 47.5,133.5C 47.1676,118.467 47.6676,103.467 49,88.5C 50.9313,86.4704 52.4313,84.1371 53.5,81.5C 53.1667,80.8333 52.8333,80.1667 52.5,79.5C 54.3591,75.0782 55.0257,70.4115 54.5,65.5C 55.6491,65.2089 56.3158,64.3756 56.5,63C 57.0767,60.863 57.41,58.6963 57.5,56.5C 59.9305,54.954 61.2639,52.6207 61.5,49.5C 62.9063,49.0269 63.573,48.0269 63.5,46.5C 64.9063,46.0269 65.573,45.0269 65.5,43.5C 67.2624,42.7377 68.2624,41.4044 68.5,39.5C 68.8333,38.5 69.5,37.8333 70.5,37.5C 71.9063,37.0269 72.573,36.0269 72.5,34.5C 75.0892,33.5806 77.0892,31.914 78.5,29.5C 81.0934,28.2464 83.4268,26.5798 85.5,24.5C 91.4627,24.6241 97.4627,24.4574 103.5,24C 105.107,25.049 105.773,26.549 105.5,28.5 Z"/></g>
<g><path style="opacity:0.11" fill="#dbecf4" d="M 186.5,39.5 C 188.027,39.427 189.027,40.0937 189.5,41.5C 187.973,41.573 186.973,40.9063 186.5,39.5 Z"/></g>
<g><path style="opacity:0.322" fill="#c9e4f1" d="M 68.5,39.5 C 68.2624,41.4044 67.2624,42.7377 65.5,43.5C 65.7376,41.5956 66.7376,40.2623 68.5,39.5 Z"/></g>
<g><path style="opacity:0.031" fill="#e1f0f8" d="M 95.5,38.5 C 94.5806,41.0892 92.914,43.0892 90.5,44.5C 91.4194,41.9108 93.086,39.9108 95.5,38.5 Z"/></g>
<g><path style="opacity:1" fill="#7bd6f0" d="M 51.5,43.5 C 49.2921,44.023 47.7921,45.3563 47,47.5C 46.5099,45.4546 46.6765,43.4546 47.5,41.5C 50.3686,38.488 51.7019,39.1547 51.5,43.5 Z"/></g>
<g><path style="opacity:0.773" fill="#aad8ea" d="M 191.5,42.5 C 193.23,43.0256 194.564,44.0256 195.5,45.5C 193.368,45.4456 192.035,44.4456 191.5,42.5 Z"/></g>
<g><path style="opacity:0.212" fill="#cfe5f0" d="M 179.5,43.5 C 180.167,43.5 180.833,43.5 181.5,43.5C 181.833,44.1667 182.167,44.8333 182.5,45.5C 180.973,45.573 179.973,44.9063 179.5,43.5 Z"/></g>
<g><path style="opacity:0.243" fill="#c7e2f1" d="M 65.5,43.5 C 65.573,45.0269 64.9063,46.0269 63.5,46.5C 63.427,44.9731 64.0937,43.9731 65.5,43.5 Z"/></g>
<g><path style="opacity:0.239" fill="#cfe4ee" d="M 184.5,46.5 C 186.027,46.427 187.027,47.0937 187.5,48.5C 185.973,48.573 184.973,47.9063 184.5,46.5 Z"/></g>
<g><path style="opacity:0.761" fill="#b2ddef" d="M 197.5,46.5 C 199.23,47.0256 200.564,48.0256 201.5,49.5C 199.368,49.4456 198.035,48.4456 197.5,46.5 Z"/></g>
<g><path style="opacity:0.271" fill="#c2e0ec" d="M 63.5,46.5 C 63.573,48.0269 62.9063,49.0269 61.5,49.5C 61.427,47.9731 62.0937,46.9731 63.5,46.5 Z"/></g>
<g><path style="opacity:0.004" fill="#e2f0f9" d="M 87.5,47.5 C 87.8333,47.5 88.1667,47.5 88.5,47.5C 88.2624,49.4044 87.2624,50.7377 85.5,51.5C 85.7329,49.9382 86.3995,48.6049 87.5,47.5 Z"/></g>
<g><path style="opacity:0.294" fill="#cee8f3" d="M 189.5,49.5 C 191.027,49.427 192.027,50.0937 192.5,51.5C 190.973,51.573 189.973,50.9063 189.5,49.5 Z"/></g>
<g><path style="opacity:1" fill="#a1e0f6" d="M 47.5,41.5 C 46.6765,43.4546 46.5099,45.4546 47,47.5C 47.7921,45.3563 49.2921,44.023 51.5,43.5C 48.8299,48.1746 46.1633,52.8412 43.5,57.5C 42.8333,57.8333 42.1667,58.1667 41.5,58.5C 41.5,57.5 41.5,56.5 41.5,55.5C 40.0413,55.4326 38.7079,55.7659 37.5,56.5C 40.0563,50.9508 43.3897,45.9508 47.5,41.5 Z"/></g>
<g><path style="opacity:0.8" fill="#aad3ea" d="M 61.5,49.5 C 61.2639,52.6207 59.9305,54.954 57.5,56.5C 58.0787,53.6689 59.412,51.3356 61.5,49.5 Z"/></g>
<g><path style="opacity:0.286" fill="#bedfec" d="M 192.5,51.5 C 194.749,52.0798 196.415,53.4131 197.5,55.5C 195.251,54.9202 193.585,53.5869 192.5,51.5 Z"/></g>
<g><path style="opacity:0.09" fill="#e3f2fa" d="M 84.5,53.5 C 84.573,55.0269 83.9063,56.0269 82.5,56.5C 82.427,54.9731 83.0937,53.9731 84.5,53.5 Z"/></g>
<g><path style="opacity:0.604" fill="#c1e1ef" d="M 197.5,55.5 C 199.749,56.0798 201.415,57.4131 202.5,59.5C 200.251,58.9202 198.585,57.5869 197.5,55.5 Z"/></g>
<g><path style="opacity:0.047" fill="#d4ebf4" d="M 208.5,55.5 C 210.027,55.427 211.027,56.0937 211.5,57.5C 209.973,57.573 208.973,56.9063 208.5,55.5 Z"/></g>
<g><path style="opacity:0.985" fill="#fdfdfd" d="M 158.5,193.5 C 157.508,200.982 157.175,208.648 157.5,216.5C 142.167,216.5 126.833,216.5 111.5,216.5C 110.139,212.197 109.139,207.864 108.5,203.5C 108.793,199.563 108.46,195.73 107.5,192C 111.809,191.191 115.976,190.025 120,188.5C 120.667,154.833 120.667,121.167 120,87.5C 119.612,86.572 118.945,85.9054 118,85.5C 115,85.786 111.834,85.786 108.5,85.5C 108.5,76.5 108.5,67.5 108.5,58.5C 134.835,58.3334 161.169,58.5 187.5,59C 193.57,63.0623 199.07,67.8956 204,73.5C 204.424,79.5066 204.924,85.5066 205.5,91.5C 204.326,105.159 204.326,118.659 205.5,132C 200.417,139.253 194.417,145.753 187.5,151.5C 186.914,151.291 186.414,150.957 186,150.5C 173.229,151.158 160.396,151.825 147.5,152.5C 147.394,165.085 147.394,177.751 147.5,190.5C 151.167,190.5 154.833,190.5 158.5,190.5C 158.5,191.5 158.5,192.5 158.5,193.5 Z M 148.5,85.5 C 158.083,85.1816 167.583,85.5149 177,86.5C 178.072,89.5438 178.572,92.7104 178.5,96C 177.705,105.295 177.372,114.295 177.5,123C 167.861,124.779 158.195,124.946 148.5,123.5C 147.188,110.771 147.188,98.1044 148.5,85.5 Z"/></g>
<g><path style="opacity:0.953" fill="#86c5e2" d="M 211.5,57.5 C 213.167,58.5 214.5,59.8333 215.5,61.5C 212.858,61.5123 211.525,60.179 211.5,57.5 Z"/></g>
<g><path style="opacity:0.808" fill="#bbebf9" d="M 37.5,56.5 C 38.0391,60.4157 36.7058,63.4157 33.5,65.5C 34.0749,62.0884 35.4082,59.0884 37.5,56.5 Z"/></g>
<g><path style="opacity:0.698" fill="#b4dded" d="M 204.5,61.5 C 206.833,61.8333 208.167,63.1667 208.5,65.5C 206.833,64.5 205.5,63.1667 204.5,61.5 Z"/></g>
<g><path style="opacity:0.29" fill="#cee8f3" d="M 215.5,61.5 C 217.167,62.5 218.5,63.8333 219.5,65.5C 217.167,65.1667 215.833,63.8333 215.5,61.5 Z"/></g>
<g><path style="opacity:1" fill="#82caec" d="M 57.5,56.5 C 57.41,58.6963 57.0767,60.863 56.5,63C 56.3158,64.3756 55.6491,65.2089 54.5,65.5C 54.1667,65.5 53.8333,65.5 53.5,65.5C 54.4629,62.2558 55.7962,59.2558 57.5,56.5 Z"/></g>
<g><path style="opacity:0.859" fill="#cfeff9" d="M 43.5,57.5 C 38.9999,68.6643 35.3332,79.9976 32.5,91.5C 33.2659,85.8344 34.0992,80.1677 35,74.5C 37.0964,69.0223 39.2631,63.6889 41.5,58.5C 42.1667,58.1667 42.8333,57.8333 43.5,57.5 Z"/></g>
<g><path style="opacity:0.216" fill="#d0ebf3" d="M 78.5,64.5 C 78.5979,66.5529 77.9313,68.2196 76.5,69.5C 76.4021,67.4471 77.0687,65.7804 78.5,64.5 Z"/></g>
<g><path style="opacity:0.463" fill="#c6e3f0" d="M 219.5,65.5 C 221.914,66.9108 223.581,68.9108 224.5,71.5C 222.086,70.0892 220.419,68.0892 219.5,65.5 Z"/></g>
<g><path style="opacity:0.847" fill="#bee8fa" d="M 33.5,65.5 C 33.9227,67.7812 33.256,69.4479 31.5,70.5C 31.4021,68.4471 32.0687,66.7804 33.5,65.5 Z"/></g>
<g><path style="opacity:1" fill="#6dc1d9" d="M 208.5,65.5 C 209.833,65.5 211.167,65.5 212.5,65.5C 214.882,68.2957 216.548,71.629 217.5,75.5C 216.5,75.1667 215.833,74.5 215.5,73.5C 215.573,71.9731 214.906,70.9731 213.5,70.5C 211.5,69.1667 209.833,67.5 208.5,65.5 Z"/></g>
<g><path style="opacity:0.027" fill="#daedf3" d="M 213.5,70.5 C 214.906,70.9731 215.573,71.9731 215.5,73.5C 214.094,73.0269 213.427,72.0269 213.5,70.5 Z"/></g>
<g><path style="opacity:0.933" fill="#8ed6f3" d="M 76.5,69.5 C 76.405,71.7857 75.7384,73.7857 74.5,75.5C 74.1667,75.5 73.8333,75.5 73.5,75.5C 73.5,74.5 73.5,73.5 73.5,72.5C 73.8564,70.8102 74.8564,69.8102 76.5,69.5 Z"/></g>
<g><path style="opacity:0.831" fill="#c8ebf6" d="M 31.5,70.5 C 31.3215,73.2165 30.8215,75.8832 30,78.5C 29.7996,80.3197 28.9663,81.653 27.5,82.5C 28.2319,78.2134 29.5652,74.2134 31.5,70.5 Z"/></g>
<g><path style="opacity:0.941" fill="#7bc9e9" d="M 53.5,66.5 C 53.3305,68.8484 52.9971,71.1817 52.5,73.5C 52.3601,75.0296 51.6935,76.0296 50.5,76.5C 50.5,75.8333 50.5,75.1667 50.5,74.5C 50.9028,71.5145 51.9028,68.8478 53.5,66.5 Z"/></g>
<g><path style="opacity:0.38" fill="#c0e1f1" d="M 224.5,71.5 C 226.587,72.5846 227.92,74.2512 228.5,76.5C 226.413,75.4154 225.08,73.7488 224.5,71.5 Z"/></g>
<g><path style="opacity:0.459" fill="#d2ebf5" d="M 50.5,74.5 C 50.5,75.1667 50.5,75.8333 50.5,76.5C 50.5979,78.5529 49.9313,80.2196 48.5,81.5C 48.7215,78.9327 49.3882,76.5994 50.5,74.5 Z"/></g>
<g><path style="opacity:0.008" fill="#e4f3f9" d="M 73.5,75.5 C 73.8333,75.5 74.1667,75.5 74.5,75.5C 74.4349,78.4282 73.7682,81.0948 72.5,83.5C 72.5751,80.7938 72.9084,78.1272 73.5,75.5 Z"/></g>
<g><path style="opacity:0.039" fill="#d3e7f0" d="M 219.5,77.5 C 220.906,77.9731 221.573,78.9731 221.5,80.5C 220.094,80.0269 219.427,79.0269 219.5,77.5 Z"/></g>
<g><path style="opacity:1" fill="#38afdf" d="M 184.5,38.5 C 185.492,38.3284 186.158,38.6618 186.5,39.5C 186.973,40.9063 187.973,41.573 189.5,41.5C 190.492,41.3284 191.158,41.6618 191.5,42.5C 192.035,44.4456 193.368,45.4456 195.5,45.5C 196.492,45.3284 197.158,45.6618 197.5,46.5C 198.035,48.4456 199.368,49.4456 201.5,49.5C 204.447,50.7805 206.781,52.7805 208.5,55.5C 208.973,56.9063 209.973,57.573 211.5,57.5C 211.525,60.179 212.858,61.5123 215.5,61.5C 215.833,63.8333 217.167,65.1667 219.5,65.5C 220.419,68.0892 222.086,70.0892 224.5,71.5C 225.08,73.7488 226.413,75.4154 228.5,76.5C 229.08,78.7488 230.413,80.4154 232.5,81.5C 232.427,83.0269 233.094,84.0269 234.5,84.5C 234.427,86.0269 235.094,87.0269 236.5,87.5C 236.427,89.0269 237.094,90.0269 238.5,90.5C 239.338,90.8417 239.672,91.5084 239.5,92.5C 239.427,94.0269 240.094,95.0269 241.5,95.5C 243.008,97.1815 244.008,99.1815 244.5,101.5C 244.678,104.216 245.178,106.883 246,109.5C 246.333,109.167 246.667,108.833 247,108.5C 247.2,110.32 248.034,111.653 249.5,112.5C 250.338,112.842 250.672,113.508 250.5,114.5C 250.402,116.553 251.069,118.22 252.5,119.5C 252.054,122.01 252.72,124.01 254.5,125.5C 254.5,126.833 254.5,128.167 254.5,129.5C 253.504,129.586 252.671,129.252 252,128.5C 249.123,120.593 247.623,120.593 247.5,128.5C 247.167,128.5 246.833,128.5 246.5,128.5C 245.596,127.791 245.263,126.791 245.5,125.5C 245.946,122.99 245.28,120.99 243.5,119.5C 242.662,119.158 242.328,118.492 242.5,117.5C 243.962,114.358 243.295,112.358 240.5,111.5C 240.573,109.973 239.906,108.973 238.5,108.5C 236.659,106.151 235.326,103.485 234.5,100.5C 234.536,97.539 233.536,95.2057 231.5,93.5C 231.167,93.5 230.833,93.5 230.5,93.5C 228.265,90.7089 226.265,87.7089 224.5,84.5C 224.573,82.9731 223.906,81.9731 222.5,81.5C 221.833,81.5 221.5,81.1667 221.5,80.5C 221.573,78.9731 220.906,77.9731 219.5,77.5C 218.5,77.1667 217.833,76.5 217.5,75.5C 216.548,71.629 214.882,68.2957 212.5,65.5C 211.167,65.5 209.833,65.5 208.5,65.5C 208.167,63.1667 206.833,61.8333 204.5,61.5C 203.5,61.1667 202.833,60.5 202.5,59.5C 201.415,57.4131 199.749,56.0798 197.5,55.5C 196.415,53.4131 194.749,52.0798 192.5,51.5C 192.027,50.0937 191.027,49.427 189.5,49.5C 188.508,49.6716 187.842,49.3382 187.5,48.5C 187.027,47.0937 186.027,46.427 184.5,46.5C 183.508,46.6716 182.842,46.3382 182.5,45.5C 182.167,44.8333 181.833,44.1667 181.5,43.5C 180.385,41.545 179.052,39.7116 177.5,38C 179.751,38.2068 182.085,38.3735 184.5,38.5 Z"/></g>
<g><path style="opacity:0.196" fill="#cae4f0" d="M 228.5,76.5 C 230.587,77.5846 231.92,79.2512 232.5,81.5C 230.413,80.4154 229.08,78.7488 228.5,76.5 Z"/></g>
<g><path style="opacity:1" fill="#5bc2f6" d="M 73.5,72.5 C 73.5,73.5 73.5,74.5 73.5,75.5C 72.9084,78.1272 72.5751,80.7938 72.5,83.5C 69.3929,105.62 70.0596,127.62 74.5,149.5C 74.1667,149.5 73.8333,149.5 73.5,149.5C 71.9318,147.189 71.0984,144.522 71,141.5C 67.0091,138.202 66.0091,134.202 68,129.5C 68.8324,118.818 68.6657,108.151 67.5,97.5C 66.5052,102.792 66.1718,108.125 66.5,113.5C 65.7356,115.74 64.9023,118.073 64,120.5C 63.5931,117.318 63.0931,114.151 62.5,111C 63.2899,101.513 63.4566,92.0131 63,82.5C 65.7191,81.5562 68.5525,81.2229 71.5,81.5C 70.9455,77.9878 71.6122,74.9878 73.5,72.5 Z"/></g>
<g><path style="opacity:0.012" fill="#e3eff5" d="M 222.5,81.5 C 223.906,81.9731 224.573,82.9731 224.5,84.5C 223.094,84.0269 222.427,83.0269 222.5,81.5 Z"/></g>
<g><path style="opacity:0.224" fill="#d0e7f1" d="M 232.5,81.5 C 233.906,81.9731 234.573,82.9731 234.5,84.5C 233.094,84.0269 232.427,83.0269 232.5,81.5 Z"/></g>
<g><path style="opacity:0.318" fill="#c4e2ed" d="M 234.5,84.5 C 235.906,84.9731 236.573,85.9731 236.5,87.5C 235.094,87.0269 234.427,86.0269 234.5,84.5 Z"/></g>
<g><path style="opacity:0.235" fill="#cbe4ee" d="M 236.5,87.5 C 237.906,87.9731 238.573,88.9731 238.5,90.5C 237.094,90.0269 236.427,89.0269 236.5,87.5 Z"/></g>
<g><path style="opacity:0.902" fill="#c5ebf9" d="M 26.5,86.5 C 26.6641,89.1873 26.4974,91.854 26,94.5C 25.6174,95.056 25.1174,95.3893 24.5,95.5C 24.6761,92.2727 25.3428,89.2727 26.5,86.5 Z"/></g>
<g><path style="opacity:1" fill="#7bc2df" d="M 231.5,93.5 C 233.536,95.2057 234.536,97.539 234.5,100.5C 233.326,99.4863 232.66,98.153 232.5,96.5C 232.443,95.391 232.11,94.391 231.5,93.5 Z"/></g>
<g><path style="opacity:0.18" fill="#d4e9f3" d="M 239.5,92.5 C 240.906,92.9731 241.573,93.9731 241.5,95.5C 240.094,95.0269 239.427,94.0269 239.5,92.5 Z"/></g>
<g><path style="opacity:0.102" fill="#e0eef5" d="M 230.5,93.5 C 230.833,93.5 231.167,93.5 231.5,93.5C 232.11,94.391 232.443,95.391 232.5,96.5C 231.094,96.0269 230.427,95.0269 230.5,93.5 Z"/></g>
<g><path style="opacity:1" fill="#8ac7e6" d="M 244.5,101.5 C 246.957,104.751 248.624,108.418 249.5,112.5C 248.034,111.653 247.2,110.32 247,108.5C 246.667,108.833 246.333,109.167 246,109.5C 245.178,106.883 244.678,104.216 244.5,101.5 Z"/></g>
<g><path style="opacity:0.655" fill="#adddef" d="M 46.5,91.5 C 46.5,102.5 46.5,113.5 46.5,124.5C 46.1667,124.5 45.8333,124.5 45.5,124.5C 44.2082,113.368 44.5415,102.368 46.5,91.5 Z"/></g>
<g><path style="opacity:0.125" fill="#daecf3" d="M 238.5,108.5 C 239.906,108.973 240.573,109.973 240.5,111.5C 239.094,111.027 238.427,110.027 238.5,108.5 Z"/></g>
<g><path style="opacity:1" fill="#9ad2eb" d="M 240.5,111.5 C 243.295,112.358 243.962,114.358 242.5,117.5C 241.262,115.786 240.595,113.786 240.5,111.5 Z"/></g>
<g><path style="opacity:0.254" fill="#e0eff5" d="M 32.5,91.5 C 31.9048,100.333 31.2381,109.166 30.5,118C 31.2543,124.814 31.5876,131.647 31.5,138.5C 28.8022,122.782 29.1355,107.115 32.5,91.5 Z"/></g>
<g><path style="opacity:0.982" fill="#45bbed" d="M 53.5,65.5 C 53.8333,65.5 54.1667,65.5 54.5,65.5C 55.0257,70.4115 54.3591,75.0782 52.5,79.5C 52.8333,80.1667 53.1667,80.8333 53.5,81.5C 52.4313,84.1371 50.9313,86.4704 49,88.5C 47.6676,103.467 47.1676,118.467 47.5,133.5C 46.5233,130.713 46.19,127.713 46.5,124.5C 46.5,113.5 46.5,102.5 46.5,91.5C 46.7878,88.0611 47.4544,84.7278 48.5,81.5C 49.9313,80.2196 50.5979,78.5529 50.5,76.5C 51.6935,76.0296 52.3601,75.0296 52.5,73.5C 52.9971,71.1817 53.3305,68.8484 53.5,66.5C 53.5,66.1667 53.5,65.8333 53.5,65.5 Z"/></g>
<g><path style="opacity:0.094" fill="#e2eff5" d="M 250.5,114.5 C 251.931,115.78 252.598,117.447 252.5,119.5C 251.069,118.22 250.402,116.553 250.5,114.5 Z"/></g>
<g><path style="opacity:0.052" fill="#f2f8fb" d="M 22.5,114.5 C 22.7004,123.506 23.0338,132.506 23.5,141.5C 21.5022,132.544 21.1688,123.544 22.5,114.5 Z"/></g>
<g><path style="opacity:0.733" fill="#a3d5e7" d="M 243.5,119.5 C 245.28,120.99 245.946,122.99 245.5,125.5C 244.262,123.786 243.595,121.786 243.5,119.5 Z"/></g>
<g><path style="opacity:0.714" fill="#b1d9ea" d="M 252.5,119.5 C 253.458,121.302 254.125,123.302 254.5,125.5C 252.72,124.01 252.054,122.01 252.5,119.5 Z"/></g>
<g><path style="opacity:1" fill="#03b5fc" d="M 73.5,149.5 C 74.5083,154.2 74.5083,158.867 73.5,163.5C 75.9913,164.541 75.9913,165.374 73.5,166C 74.1667,166.333 74.8333,166.667 75.5,167C 74.4267,168.25 74.4267,169.584 75.5,171C 74.6831,172.49 73.8498,173.99 73,175.5C 72.6667,174.833 72.3333,174.167 72,173.5C 71.6667,175.833 71.3333,178.167 71,180.5C 69.5187,181.471 68.6854,182.804 68.5,184.5C 69.1089,187.878 67.7756,189.878 64.5,190.5C 64.5,189.833 64.1667,189.5 63.5,189.5C 65.3051,185.151 64.3051,181.651 60.5,179C 59.3507,177.27 59.3507,175.604 60.5,174C 57.8782,170.506 55.5449,167.006 53.5,163.5C 53.4431,162.391 53.1098,161.391 52.5,160.5C 51.6173,150.845 52.2839,141.511 54.5,132.5C 55.404,131.791 55.7373,130.791 55.5,129.5C 56.5,129.5 57.5,129.5 58.5,129.5C 58.1718,124.125 58.5052,118.792 59.5,113.5C 60.086,113.291 60.586,112.957 61,112.5C 62.2662,116.395 62.7662,120.395 62.5,124.5C 63.8221,124.67 64.9887,124.337 66,123.5C 66.4983,120.183 66.665,116.85 66.5,113.5C 66.1718,108.125 66.5052,102.792 67.5,97.5C 68.6657,108.151 68.8324,118.818 68,129.5C 66.0091,134.202 67.0091,138.202 71,141.5C 71.0984,144.522 71.9318,147.189 73.5,149.5 Z"/></g>
<g><path style="opacity:0.314" fill="#c2e0ed" d="M 254.5,125.5 C 255.924,127.515 256.59,129.848 256.5,132.5C 255.833,131.833 255.167,131.167 254.5,130.5C 254.5,130.167 254.5,129.833 254.5,129.5C 254.5,128.167 254.5,126.833 254.5,125.5 Z"/></g>
<g><path style="opacity:0.016" fill="#d8ecf5" d="M 246.5,128.5 C 246.833,128.5 247.167,128.5 247.5,128.5C 248.369,130.717 248.702,133.05 248.5,135.5C 247.388,133.401 246.721,131.067 246.5,128.5 Z"/></g>
<g><path style="opacity:0.184" fill="#d2eaf5" d="M 45.5,124.5 C 45.8333,124.5 46.1667,124.5 46.5,124.5C 46.19,127.713 46.5233,130.713 47.5,133.5C 47.448,135.903 47.7814,138.236 48.5,140.5C 48.9422,144.154 49.2756,147.821 49.5,151.5C 46.9967,142.8 45.6633,133.8 45.5,124.5 Z"/></g>
<g><path style="opacity:1" fill="#15aae3" d="M 254.5,129.5 C 254.5,129.833 254.5,130.167 254.5,130.5C 254.375,134.793 255.042,138.96 256.5,143C 255.99,145.706 255.323,148.373 254.5,151C 254.164,152.03 253.497,152.53 252.5,152.5C 252.073,149.99 251.407,147.657 250.5,145.5C 250.678,141.878 250.011,138.544 248.5,135.5C 248.702,133.05 248.369,130.717 247.5,128.5C 247.623,120.593 249.123,120.593 252,128.5C 252.671,129.252 253.504,129.586 254.5,129.5 Z"/></g>
<g><path style="opacity:1" fill="#21b9f0" d="M 54.5,132.5 C 52.2839,141.511 51.6173,150.845 52.5,160.5C 52.1667,160.5 51.8333,160.5 51.5,160.5C 51.5797,157.219 50.913,154.219 49.5,151.5C 49.2756,147.821 48.9422,144.154 48.5,140.5C 49.7124,139.77 50.7124,138.77 51.5,137.5C 52.1667,134.833 52.8333,132.167 53.5,129.5C 54.3857,130.325 54.719,131.325 54.5,132.5 Z"/></g>
<g><path style="opacity:0.627" fill="#bcdeeb" d="M 256.5,133.5 C 257.913,136.219 258.58,139.219 258.5,142.5C 257.087,139.781 256.42,136.781 256.5,133.5 Z"/></g>
<g><path style="opacity:0.016" fill="#eaf4f8" d="M 248.5,135.5 C 250.011,138.544 250.678,141.878 250.5,145.5C 249.215,142.411 248.549,139.078 248.5,135.5 Z"/></g>
<g><path style="opacity:0.051" fill="#ebf4f9" d="M 23.5,141.5 C 24.6437,145.964 25.3104,150.63 25.5,155.5C 23.8958,151.1 23.2291,146.434 23.5,141.5 Z"/></g>
<g><path style="opacity:0.063" fill="#e1f0f7" d="M 49.5,151.5 C 50.913,154.219 51.5797,157.219 51.5,160.5C 50.087,157.781 49.4203,154.781 49.5,151.5 Z"/></g>
<g><path style="opacity:0.098" fill="#d5edf7" d="M 75.5,153.5 C 77.0719,156.215 78.0719,159.215 78.5,162.5C 76.5275,159.916 75.5275,156.916 75.5,153.5 Z"/></g>
<g><path style="opacity:0.035" fill="#daebf3" d="M 250.5,145.5 C 251.407,147.657 252.073,149.99 252.5,152.5C 253.479,160.997 253.479,169.33 252.5,177.5C 252.375,166.796 251.709,156.129 250.5,145.5 Z"/></g>
<g><path style="opacity:0.843" fill="#c6edf9" d="M 31.5,139.5 C 33.3474,149.404 35.3474,159.404 37.5,169.5C 36.0689,169.119 35.2355,168.119 35,166.5C 32.8505,157.621 31.6838,148.621 31.5,139.5 Z"/></g>
<g><path style="opacity:0.588" fill="#b2ddf1" d="M 51.5,160.5 C 51.8333,160.5 52.1667,160.5 52.5,160.5C 53.1098,161.391 53.4431,162.391 53.5,163.5C 53.5,164.5 53.5,165.5 53.5,166.5C 52.2616,164.786 51.595,162.786 51.5,160.5 Z"/></g>
<g><path style="opacity:0.761" fill="#b4e0f0" d="M 78.5,162.5 C 79.7384,164.214 80.405,166.214 80.5,168.5C 78.7202,167.01 78.0535,165.01 78.5,162.5 Z"/></g>
<g><path style="opacity:1" fill="#13abe0" d="M 259.5,177.5 C 259.02,182.822 258.687,188.155 258.5,193.5C 257.5,193.833 256.833,194.5 256.5,195.5C 254.21,197.033 253.544,196.7 254.5,194.5C 253.147,193.476 252.48,192.143 252.5,190.5C 254.431,186.448 255.598,182.115 256,177.5C 256.333,169.5 256.667,161.5 257,153.5C 257.333,153.167 257.667,152.833 258,152.5C 259.37,160.764 259.87,169.097 259.5,177.5 Z"/></g>
<g><path style="opacity:1" fill="#4db4dc" d="M 254.5,130.5 C 255.167,131.167 255.833,131.833 256.5,132.5C 256.5,132.833 256.5,133.167 256.5,133.5C 256.42,136.781 257.087,139.781 258.5,142.5C 260.117,147.916 260.784,153.583 260.5,159.5C 260.823,165.69 260.49,171.69 259.5,177.5C 259.87,169.097 259.37,160.764 258,152.5C 257.667,152.833 257.333,153.167 257,153.5C 256.667,161.5 256.333,169.5 256,177.5C 255.598,182.115 254.431,186.448 252.5,190.5C 252.167,190.5 251.833,190.5 251.5,190.5C 251.182,185.968 251.515,181.634 252.5,177.5C 253.479,169.33 253.479,160.997 252.5,152.5C 253.497,152.53 254.164,152.03 254.5,151C 255.323,148.373 255.99,145.706 256.5,143C 255.042,138.96 254.375,134.793 254.5,130.5 Z"/></g>
<g><path style="opacity:0.82" fill="#ceeef8" d="M 37.5,169.5 C 39.0719,172.215 40.0719,175.215 40.5,178.5C 38.1376,176.081 37.1376,173.081 37.5,169.5 Z"/></g>
<g><path style="opacity:0.859" fill="#a6d9f0" d="M 81.5,171.5 C 83.5918,174.088 84.9251,177.088 85.5,180.5C 82.8352,178.165 81.5018,175.165 81.5,171.5 Z"/></g>
<g><path style="opacity:0.988" fill="#b7e5f6" d="M 27.5,164.5 C 28.1174,164.611 28.6174,164.944 29,165.5C 31.1309,171.327 32.7976,177.327 34,183.5C 37.0901,187.98 38.9235,192.98 39.5,198.5C 33.7472,187.915 29.7472,176.582 27.5,164.5 Z"/></g>
<g><path style="opacity:0.161" fill="#d9edf7" d="M 56.5,176.5 C 58.1042,177.287 58.7709,178.62 58.5,180.5C 57.3263,179.486 56.6596,178.153 56.5,176.5 Z"/></g>
<g><path style="opacity:0.773" fill="#d1eefb" d="M 40.5,178.5 C 41.7384,180.214 42.405,182.214 42.5,184.5C 40.6921,183.082 40.0254,181.082 40.5,178.5 Z"/></g>
<g><path style="opacity:0.475" fill="#bae2f3" d="M 58.5,180.5 C 60.2132,181.635 60.8799,183.302 60.5,185.5C 59.0687,184.22 58.4021,182.553 58.5,180.5 Z"/></g>
<g><path style="opacity:1" fill="#59c1f4" d="M 53.5,163.5 C 55.5449,167.006 57.8782,170.506 60.5,174C 59.3507,175.604 59.3507,177.27 60.5,179C 64.3051,181.651 65.3051,185.151 63.5,189.5C 63.1667,189.5 62.8333,189.5 62.5,189.5C 61.3263,188.486 60.6596,187.153 60.5,185.5C 60.8799,183.302 60.2132,181.635 58.5,180.5C 58.7709,178.62 58.1042,177.287 56.5,176.5C 55.1301,173.381 54.1301,170.048 53.5,166.5C 53.5,165.5 53.5,164.5 53.5,163.5 Z"/></g>
<g><path style="opacity:0.067" fill="#e4f2f7" d="M 260.5,159.5 C 261.968,170.933 261.302,182.267 258.5,193.5C 258.687,188.155 259.02,182.822 259.5,177.5C 260.49,171.69 260.823,165.69 260.5,159.5 Z"/></g>
<g><path style="opacity:1" fill="#17b6fa" d="M 73.5,149.5 C 73.8333,149.5 74.1667,149.5 74.5,149.5C 75.4345,150.568 75.7678,151.901 75.5,153.5C 75.5275,156.916 76.5275,159.916 78.5,162.5C 78.0535,165.01 78.7202,167.01 80.5,168.5C 81.404,169.209 81.7373,170.209 81.5,171.5C 81.5018,175.165 82.8352,178.165 85.5,180.5C 86.6737,181.514 87.3404,182.847 87.5,184.5C 87.0311,187.393 88.0311,189.393 90.5,190.5C 90.5,191.167 90.5,191.833 90.5,192.5C 90.372,194.655 90.872,196.655 92,198.5C 94.0817,201.383 96.5817,203.717 99.5,205.5C 99.7376,207.404 100.738,208.738 102.5,209.5C 104.785,213.727 107.785,217.393 111.5,220.5C 111.738,222.404 112.738,223.738 114.5,224.5C 114.539,225.583 114.873,226.583 115.5,227.5C 114.758,228.287 113.925,228.953 113,229.5C 111.862,234.329 113.528,235.329 118,232.5C 119.584,233.861 121.418,234.528 123.5,234.5C 125.874,238.08 127.874,241.913 129.5,246C 134.091,247.485 138.757,248.651 143.5,249.5C 144.167,249.5 144.833,249.5 145.5,249.5C 146.659,251.25 148.326,252.25 150.5,252.5C 151.287,254.104 152.62,254.771 154.5,254.5C 155.492,254.328 156.158,254.662 156.5,255.5C 156.5,256.5 156.5,257.5 156.5,258.5C 160.869,259.025 164.869,260.525 168.5,263C 181.049,265.391 193.716,266.058 206.5,265C 207.756,264.583 208.423,263.75 208.5,262.5C 211.273,261.343 214.273,260.676 217.5,260.5C 219.698,260.88 221.365,260.213 222.5,258.5C 223.167,258.5 223.833,258.5 224.5,258.5C 224.421,259.93 224.754,261.264 225.5,262.5C 222.737,263.252 220.07,264.252 217.5,265.5C 216.571,266.689 216.238,268.022 216.5,269.5C 217.978,269.238 219.311,269.571 220.5,270.5C 220.291,271.086 219.957,271.586 219.5,272C 221.134,272.494 222.801,272.66 224.5,272.5C 224.5,272.833 224.5,273.167 224.5,273.5C 223.486,274.674 222.153,275.34 220.5,275.5C 218.181,275.992 216.181,276.992 214.5,278.5C 212.11,280.02 209.443,281.02 206.5,281.5C 204.5,281.5 202.5,281.5 200.5,281.5C 191.827,281.666 183.16,281.5 174.5,281C 166.144,279.481 157.811,277.981 149.5,276.5C 147.412,275.061 145.079,274.394 142.5,274.5C 141.365,272.787 139.698,272.12 137.5,272.5C 137.027,271.094 136.027,270.427 134.5,270.5C 132.847,270.34 131.514,269.674 130.5,268.5C 130.027,267.094 129.027,266.427 127.5,266.5C 127.027,265.094 126.027,264.427 124.5,264.5C 123.508,264.672 122.842,264.338 122.5,263.5C 121.738,261.738 120.404,260.738 118.5,260.5C 117.089,258.086 115.089,256.419 112.5,255.5C 110.431,252.427 107.764,250.094 104.5,248.5C 104.5,246.5 103.5,245.5 101.5,245.5C 100.5,245.167 99.8333,244.5 99.5,243.5C 97.9843,240.296 96.6509,236.963 95.5,233.5C 88.5185,230.883 84.3518,225.883 83,218.5C 80.4522,214.734 77.4522,211.401 74,208.5C 73.79,206.942 73.29,205.609 72.5,204.5C 71.8921,203.2 71.2255,201.867 70.5,200.5C 72.0548,198.181 71.3882,196.681 68.5,196C 69.0792,192.843 70.0792,189.843 71.5,187C 71.2517,185.251 70.2517,184.418 68.5,184.5C 68.6854,182.804 69.5187,181.471 71,180.5C 71.3333,178.167 71.6667,175.833 72,173.5C 72.3333,174.167 72.6667,174.833 73,175.5C 73.8498,173.99 74.6831,172.49 75.5,171C 74.4267,169.584 74.4267,168.25 75.5,167C 74.8333,166.667 74.1667,166.333 73.5,166C 75.9913,165.374 75.9913,164.541 73.5,163.5C 74.5083,158.867 74.5083,154.2 73.5,149.5 Z"/></g>
<g><path style="opacity:0.847" fill="#9bd3ef" d="M 87.5,184.5 C 89.0075,186.181 90.0075,188.181 90.5,190.5C 88.0311,189.393 87.0311,187.393 87.5,184.5 Z"/></g>
<g><path style="opacity:1" fill="#3bbdf6" d="M 68.5,184.5 C 70.2517,184.418 71.2517,185.251 71.5,187C 70.0792,189.843 69.0792,192.843 68.5,196C 71.3882,196.681 72.0548,198.181 70.5,200.5C 71.2255,201.867 71.8921,203.2 72.5,204.5C 71.391,204.443 70.391,204.11 69.5,203.5C 68.6618,203.158 68.3284,202.492 68.5,201.5C 68.7593,199.011 67.7593,197.344 65.5,196.5C 64.6618,196.158 64.3284,195.492 64.5,194.5C 64.5,193.167 64.5,191.833 64.5,190.5C 67.7756,189.878 69.1089,187.878 68.5,184.5 Z"/></g>
<g><path style="opacity:0.082" fill="#dff2f8" d="M 42.5,184.5 C 44.2927,186.426 45.2927,188.759 45.5,191.5C 44.8333,190.833 44.1667,190.167 43.5,189.5C 42.6993,187.958 42.366,186.292 42.5,184.5 Z"/></g>
<g><path style="opacity:0.624" fill="#b7e1f8" d="M 62.5,189.5 C 62.8333,189.5 63.1667,189.5 63.5,189.5C 64.1667,189.5 64.5,189.833 64.5,190.5C 64.5,191.833 64.5,193.167 64.5,194.5C 63.0687,193.22 62.4021,191.553 62.5,189.5 Z"/></g>
<g><path style="opacity:0.169" fill="#daecf5" d="M 90.5,190.5 C 91.9063,190.973 92.573,191.973 92.5,193.5C 91.8333,193.167 91.1667,192.833 90.5,192.5C 90.5,191.833 90.5,191.167 90.5,190.5 Z"/></g>
<g><path style="opacity:0.655" fill="#b2d7ea" d="M 258.5,193.5 C 258.279,196.067 257.612,198.401 256.5,200.5C 256.5,198.833 256.5,197.167 256.5,195.5C 256.833,194.5 257.5,193.833 258.5,193.5 Z"/></g>
<g><path style="opacity:1" fill="#64c2e9" d="M 90.5,192.5 C 91.1667,192.833 91.8333,193.167 92.5,193.5C 94.0828,195.663 95.4161,197.996 96.5,200.5C 96.427,202.027 97.0937,203.027 98.5,203.5C 99.3382,203.842 99.6716,204.508 99.5,205.5C 96.5817,203.717 94.0817,201.383 92,198.5C 90.872,196.655 90.372,194.655 90.5,192.5 Z"/></g>
<g><path style="opacity:0.922" fill="#b0def5" d="M 65.5,196.5 C 67.7593,197.344 68.7593,199.011 68.5,201.5C 66.7497,200.341 65.7497,198.674 65.5,196.5 Z"/></g>
<g><path style="opacity:0.345" fill="#badeec" d="M 96.5,200.5 C 97.9063,200.973 98.573,201.973 98.5,203.5C 97.0937,203.027 96.427,202.027 96.5,200.5 Z"/></g>
<g><path style="opacity:0.165" fill="#e2f1f7" d="M 40.5,201.5 C 42.873,203.579 44.2064,206.246 44.5,209.5C 42.659,207.151 41.3257,204.485 40.5,201.5 Z"/></g>
<g><path style="opacity:0.576" fill="#c9e5ef" d="M 250.5,195.5 C 250.489,200.17 249.489,204.503 247.5,208.5C 247.74,203.88 248.74,199.547 250.5,195.5 Z"/></g>
<g><path style="opacity:0.925" fill="#a9daf0" d="M 69.5,203.5 C 70.391,204.11 71.391,204.443 72.5,204.5C 72.5,205.833 72.5,207.167 72.5,208.5C 70.7497,207.341 69.7497,205.674 69.5,203.5 Z"/></g>
<g><path style="opacity:0.212" fill="#d5e8f1" d="M 256.5,201.5 C 256.405,203.786 255.738,205.786 254.5,207.5C 254.259,205.102 254.926,203.102 256.5,201.5 Z"/></g>
<g><path style="opacity:1" fill="#74dbf7" d="M 41.5,58.5 C 39.2631,63.6889 37.0964,69.0223 35,74.5C 34.0992,80.1677 33.2659,85.8344 32.5,91.5C 29.1355,107.115 28.8022,122.782 31.5,138.5C 31.5,138.833 31.5,139.167 31.5,139.5C 31.6838,148.621 32.8505,157.621 35,166.5C 35.2355,168.119 36.0689,169.119 37.5,169.5C 37.1376,173.081 38.1376,176.081 40.5,178.5C 40.0254,181.082 40.6921,183.082 42.5,184.5C 42.366,186.292 42.6993,187.958 43.5,189.5C 43.4332,191.401 43.7665,193.234 44.5,195C 48.1237,198.749 50.2904,203.249 51,208.5C 52.3997,209.748 53.8997,210.748 55.5,211.5C 56.3382,211.842 56.6716,212.508 56.5,213.5C 56.5364,217.2 58.2031,219.867 61.5,221.5C 61.7445,225.652 63.7445,228.652 67.5,230.5C 67.7376,232.404 68.7376,233.738 70.5,234.5C 71.0798,236.749 72.4131,238.415 74.5,239.5C 75.2265,242.288 76.8932,244.288 79.5,245.5C 82.5,251.167 86.8333,255.5 92.5,258.5C 93.2623,260.262 94.5956,261.262 96.5,261.5C 96.7868,264.484 98.4535,265.817 101.5,265.5C 102.243,268.57 104.243,270.236 107.5,270.5C 108.167,272.5 109.5,273.833 111.5,274.5C 108.61,277.067 105.943,276.9 103.5,274C 102.207,273.51 100.873,273.343 99.5,273.5C 98.2814,269.62 95.6147,267.62 91.5,267.5C 90.1073,264.983 88.1073,263.316 85.5,262.5C 83.8333,261.5 82.5,260.167 81.5,258.5C 79.785,256.118 77.785,254.118 75.5,252.5C 74.1667,251.833 73.1667,250.833 72.5,249.5C 71.2498,247.068 69.7498,244.734 68,242.5C 67.3292,241.748 66.4959,241.414 65.5,241.5C 65.4456,239.368 64.4456,238.035 62.5,237.5C 61.9,234.702 60.9,232.035 59.5,229.5C 58.675,228.614 57.675,228.281 56.5,228.5C 56.6621,226.473 56.4955,224.473 56,222.5C 53.7621,220.691 52.5954,218.358 52.5,215.5C 50.7839,215.371 49.1172,215.038 47.5,214.5C 47.2503,212.326 46.2503,210.659 44.5,209.5C 44.2064,206.246 42.873,203.579 40.5,201.5C 39.596,200.791 39.2627,199.791 39.5,198.5C 38.9235,192.98 37.0901,187.98 34,183.5C 32.7976,177.327 31.1309,171.327 29,165.5C 28.6174,164.944 28.1174,164.611 27.5,164.5C 26.087,161.781 25.4203,158.781 25.5,155.5C 25.3104,150.63 24.6437,145.964 23.5,141.5C 23.0338,132.506 22.7004,123.506 22.5,114.5C 22.3369,107.938 23.0035,101.605 24.5,95.5C 25.1174,95.3893 25.6174,95.056 26,94.5C 26.4974,91.854 26.6641,89.1873 26.5,86.5C 26.2322,84.901 26.5655,83.5676 27.5,82.5C 28.9663,81.653 29.7996,80.3197 30,78.5C 30.8215,75.8832 31.3215,73.2165 31.5,70.5C 33.256,69.4479 33.9227,67.7812 33.5,65.5C 36.7058,63.4157 38.0391,60.4157 37.5,56.5C 38.7079,55.7659 40.0413,55.4326 41.5,55.5C 41.5,56.5 41.5,57.5 41.5,58.5 Z"/></g>
<g><path style="opacity:0.988" fill="#b2e7f9" d="M 43.5,189.5 C 44.1667,190.167 44.8333,190.833 45.5,191.5C 49.3412,197.849 52.6745,204.516 55.5,211.5C 53.8997,210.748 52.3997,209.748 51,208.5C 50.2904,203.249 48.1237,198.749 44.5,195C 43.7665,193.234 43.4332,191.401 43.5,189.5 Z"/></g>
<g><path style="opacity:0.537" fill="#aeddee" d="M 99.5,205.5 C 101.262,206.262 102.262,207.596 102.5,209.5C 100.738,208.738 99.7376,207.404 99.5,205.5 Z"/></g>
<g><path style="opacity:1" fill="#57beed" d="M 72.5,204.5 C 73.29,205.609 73.79,206.942 74,208.5C 77.4522,211.401 80.4522,214.734 83,218.5C 84.3518,225.883 88.5185,230.883 95.5,233.5C 96.6509,236.963 97.9843,240.296 99.5,243.5C 96.5,241.167 93.8333,238.5 91.5,235.5C 90.8645,233.205 89.5311,231.539 87.5,230.5C 83.1125,226.071 79.4458,221.071 76.5,215.5C 76.7409,212.966 75.7409,211.3 73.5,210.5C 72.6618,210.158 72.3284,209.492 72.5,208.5C 72.5,207.167 72.5,205.833 72.5,204.5 Z"/></g>
<g><path style="opacity:0.122" fill="#e9f4f9" d="M 44.5,209.5 C 46.2503,210.659 47.2503,212.326 47.5,214.5C 45.7497,213.341 44.7497,211.674 44.5,209.5 Z"/></g>
<g><path style="opacity:0.537" fill="#b5def1" d="M 73.5,210.5 C 75.7409,211.3 76.7409,212.966 76.5,215.5C 75.1103,214.101 74.1103,212.434 73.5,210.5 Z"/></g>
<g><path style="opacity:0.545" fill="#d9ebf4" d="M 265.5,215.5 C 265.869,213.007 265.203,212.34 263.5,213.5C 263.989,210.533 265.155,207.867 267,205.5C 267.837,209.148 267.337,212.481 265.5,215.5 Z"/></g>
<g><path style="opacity:0.82" fill="#a0d6ea" d="M 247.5,208.5 C 247.655,211.716 246.655,214.383 244.5,216.5C 244.98,213.557 245.98,210.89 247.5,208.5 Z"/></g>
<g><path style="opacity:0.937" fill="#bcecf9" d="M 56.5,213.5 C 58.664,215.822 60.3307,218.489 61.5,221.5C 58.2031,219.867 56.5364,217.2 56.5,213.5 Z"/></g>
<g><path style="opacity:0.375" fill="#eff2f5" d="M 158.5,193.5 C 158.831,201.528 158.498,209.528 157.5,217.5C 146.701,218.689 135.868,218.689 125,217.5C 121.651,217.681 118.317,218.014 115,218.5C 113.319,218.608 112.152,219.275 111.5,220.5C 107.785,217.393 104.785,213.727 102.5,209.5C 104.129,210.625 105.629,211.959 107,213.5C 107.826,210.207 108.326,206.874 108.5,203.5C 109.139,207.864 110.139,212.197 111.5,216.5C 126.833,216.5 142.167,216.5 157.5,216.5C 157.175,208.648 157.508,200.982 158.5,193.5 Z"/></g>
<g><path style="opacity:1" fill="#51b4dd" d="M 251.5,190.5 C 251.833,190.5 252.167,190.5 252.5,190.5C 252.48,192.143 253.147,193.476 254.5,194.5C 253.544,196.7 254.21,197.033 256.5,195.5C 256.5,197.167 256.5,198.833 256.5,200.5C 256.5,200.833 256.5,201.167 256.5,201.5C 254.926,203.102 254.259,205.102 254.5,207.5C 252.535,214.097 249.535,220.097 245.5,225.5C 244.167,225.5 242.833,225.5 241.5,225.5C 241.5,224.5 241.5,223.5 241.5,222.5C 243.969,221.393 244.969,219.393 244.5,216.5C 246.655,214.383 247.655,211.716 247.5,208.5C 249.489,204.503 250.489,200.17 250.5,195.5C 250.216,193.585 250.549,191.919 251.5,190.5 Z"/></g>
<g><path style="opacity:0.8" fill="#b0daf0" d="M 265.5,215.5 C 265.59,218.152 264.924,220.485 263.5,222.5C 263.657,221.127 263.49,219.793 263,218.5C 262.617,219.056 262.117,219.389 261.5,219.5C 261.604,217.297 262.27,215.297 263.5,213.5C 265.203,212.34 265.869,213.007 265.5,215.5 Z"/></g>
<g><path style="opacity:1" fill="#98dff7" d="M 47.5,214.5 C 49.1172,215.038 50.7839,215.371 52.5,215.5C 52.5954,218.358 53.7621,220.691 56,222.5C 56.4955,224.473 56.6621,226.473 56.5,228.5C 57.675,228.281 58.675,228.614 59.5,229.5C 60.9,232.035 61.9,234.702 62.5,237.5C 59.3954,234.725 57.0621,231.392 55.5,227.5C 55.573,225.973 54.9063,224.973 53.5,224.5C 51.0002,221.506 49.0002,218.173 47.5,214.5 Z"/></g>
<g><path style="opacity:0.533" fill="#c4e5f4" d="M 111.5,220.5 C 113.262,221.262 114.262,222.596 114.5,224.5C 112.738,223.738 111.738,222.404 111.5,220.5 Z"/></g>
<g><path style="opacity:0.945" fill="#91d0e6" d="M 244.5,216.5 C 244.969,219.393 243.969,221.393 241.5,222.5C 241.992,220.181 242.992,218.181 244.5,216.5 Z"/></g>
<g><path style="opacity:0.157" fill="#cbe8f3" d="M 261.5,219.5 C 260.773,221.954 259.773,224.287 258.5,226.5C 258.5,227.833 257.833,228.5 256.5,228.5C 257.41,225.008 259.076,222.008 261.5,219.5 Z"/></g>
<g><path style="opacity:0.89" fill="#c4effb" d="M 61.5,221.5 C 63.7451,224.32 65.7451,227.32 67.5,230.5C 63.7445,228.652 61.7445,225.652 61.5,221.5 Z"/></g>
<g><path style="opacity:0.039" fill="#e6f2f7" d="M 53.5,224.5 C 54.9063,224.973 55.573,225.973 55.5,227.5C 54.0937,227.027 53.427,226.027 53.5,224.5 Z"/></g>
<g><path style="opacity:1" fill="#93cde4" d="M 241.5,222.5 C 241.5,223.5 241.5,224.5 241.5,225.5C 242.833,225.5 244.167,225.5 245.5,225.5C 245.573,227.027 244.906,228.027 243.5,228.5C 243.53,227.503 243.03,226.836 242,226.5C 240.697,226.978 239.531,227.645 238.5,228.5C 238.992,226.181 239.992,224.181 241.5,222.5 Z"/></g>
<g><path style="opacity:0.965" fill="#82cbea" d="M 263.5,222.5 C 263.02,225.443 262.02,228.11 260.5,230.5C 260.843,228.517 260.176,227.183 258.5,226.5C 259.773,224.287 260.773,221.954 261.5,219.5C 262.117,219.389 262.617,219.056 263,218.5C 263.49,219.793 263.657,221.127 263.5,222.5 Z"/></g>
<g><path style="opacity:0.906" fill="#9dd1e2" d="M 243.5,228.5 C 243.262,230.404 242.262,231.738 240.5,232.5C 239.255,230.011 240.255,228.678 243.5,228.5 Z"/></g>
<g><path style="opacity:0.251" fill="#d3ebf6" d="M 256.5,228.5 C 256.573,230.027 255.906,231.027 254.5,231.5C 254.427,229.973 255.094,228.973 256.5,228.5 Z"/></g>
<g><path style="opacity:1" fill="#35bff5" d="M 114.5,224.5 C 116.833,226.167 118.833,228.167 120.5,230.5C 121.211,232.03 122.211,233.363 123.5,234.5C 121.418,234.528 119.584,233.861 118,232.5C 113.528,235.329 111.862,234.329 113,229.5C 113.925,228.953 114.758,228.287 115.5,227.5C 114.873,226.583 114.539,225.583 114.5,224.5 Z"/></g>
<g><path style="opacity:0.016" fill="#d0eaf6" d="M 120.5,230.5 C 123.109,231.443 125.109,233.11 126.5,235.5C 125.391,235.443 124.391,235.11 123.5,234.5C 122.211,233.363 121.211,232.03 120.5,230.5 Z"/></g>
<g><path style="opacity:0.369" fill="#e2f5fd" d="M 67.5,230.5 C 69.2624,231.262 70.2624,232.596 70.5,234.5C 68.7376,233.738 67.7376,232.404 67.5,230.5 Z"/></g>
<g><path style="opacity:0.51" fill="#b3daec" d="M 87.5,230.5 C 89.5311,231.539 90.8645,233.205 91.5,235.5C 89.457,234.421 88.1237,232.754 87.5,230.5 Z"/></g>
<g><path style="opacity:0.588" fill="#c3e3f0" d="M 236.5,231.5 C 236.262,233.404 235.262,234.738 233.5,235.5C 233.738,233.596 234.738,232.262 236.5,231.5 Z"/></g>
<g><path style="opacity:0.38" fill="#cae8f4" d="M 254.5,231.5 C 254.573,233.027 253.906,234.027 252.5,234.5C 252.427,232.973 253.094,231.973 254.5,231.5 Z"/></g>
<g><path style="opacity:0.996" fill="#61bcd7" d="M 243.5,228.5 C 240.255,228.678 239.255,230.011 240.5,232.5C 239.876,234.754 238.543,236.421 236.5,237.5C 234.821,237.715 233.821,237.048 233.5,235.5C 235.262,234.738 236.262,233.404 236.5,231.5C 236.427,229.973 237.094,228.973 238.5,228.5C 239.531,227.645 240.697,226.978 242,226.5C 243.03,226.836 243.53,227.503 243.5,228.5 Z"/></g>
<g><path style="opacity:0.353" fill="#cce8f4" d="M 252.5,234.5 C 252.262,236.404 251.262,237.738 249.5,238.5C 249.738,236.596 250.738,235.262 252.5,234.5 Z"/></g>
<g><path style="opacity:0.027" fill="#dceef6" d="M 128.5,237.5 C 130.027,237.427 131.027,238.094 131.5,239.5C 129.973,239.573 128.973,238.906 128.5,237.5 Z"/></g>
<g><path style="opacity:0.208" fill="#e2f4fc" d="M 70.5,234.5 C 72.5869,235.585 73.9202,237.251 74.5,239.5C 72.4131,238.415 71.0798,236.749 70.5,234.5 Z"/></g>
<g><path style="opacity:0.035" fill="#ddf0fa" d="M 62.5,237.5 C 64.4456,238.035 65.4456,239.368 65.5,241.5C 64.0256,240.564 63.0256,239.23 62.5,237.5 Z"/></g>
<g><path style="opacity:0.192" fill="#d2e9f4" d="M 132.5,240.5 C 134.027,240.427 135.027,241.094 135.5,242.5C 133.973,242.573 132.973,241.906 132.5,240.5 Z"/></g>
<g><path style="opacity:0.704" fill="#a7d9ea" d="M 233.5,235.5 C 233.821,237.048 234.821,237.715 236.5,237.5C 234.167,240.5 231.5,243.167 228.5,245.5C 227.167,245.5 226.5,244.833 226.5,243.5C 228.843,240.793 231.177,238.126 233.5,235.5 Z"/></g>
<g><path style="opacity:0.518" fill="#b3ddf1" d="M 248.5,239.5 C 246.833,243.167 244.167,245.833 240.5,247.5C 242.833,244.5 245.5,241.833 248.5,239.5 Z"/></g>
<g><path style="opacity:0.008" fill="#e1f0f5" d="M 135.5,242.5 C 137.404,242.738 138.738,243.738 139.5,245.5C 137.596,245.262 136.262,244.262 135.5,242.5 Z"/></g>
<g><path style="opacity:1" fill="#9fd7ef" d="M 255.5,240.5 C 254.617,243.704 252.95,246.371 250.5,248.5C 251.219,246.236 251.552,243.903 251.5,241.5C 252.959,241.567 254.292,241.234 255.5,240.5 Z"/></g>
<g><path style="opacity:0.012" fill="#def0f9" d="M 65.5,241.5 C 66.4959,241.414 67.3292,241.748 68,242.5C 69.7498,244.734 71.2498,247.068 72.5,249.5C 69.4503,247.451 67.117,244.784 65.5,241.5 Z"/></g>
<g><path style="opacity:0.212" fill="#e2f6fc" d="M 74.5,239.5 C 76.914,240.911 78.5806,242.911 79.5,245.5C 76.8932,244.288 75.2265,242.288 74.5,239.5 Z"/></g>
<g><path style="opacity:0.733" fill="#a9d5ee" d="M 101.5,245.5 C 103.5,245.5 104.5,246.5 104.5,248.5C 103.167,247.833 102.167,246.833 101.5,245.5 Z"/></g>
<g><path style="opacity:1" fill="#40b9ee" d="M 123.5,234.5 C 124.391,235.11 125.391,235.443 126.5,235.5C 127.5,235.833 128.167,236.5 128.5,237.5C 128.973,238.906 129.973,239.573 131.5,239.5C 132.167,239.5 132.5,239.833 132.5,240.5C 132.973,241.906 133.973,242.573 135.5,242.5C 136.262,244.262 137.596,245.262 139.5,245.5C 140.71,245.932 141.71,246.599 142.5,247.5C 142.833,248.167 143.167,248.833 143.5,249.5C 138.757,248.651 134.091,247.485 129.5,246C 127.874,241.913 125.874,238.08 123.5,234.5 Z"/></g>
<g><path style="opacity:0.012" fill="#e7f3f8" d="M 142.5,247.5 C 144.027,247.427 145.027,248.094 145.5,249.5C 144.833,249.5 144.167,249.5 143.5,249.5C 143.167,248.833 142.833,248.167 142.5,247.5 Z"/></g>
<g><path style="opacity:0.757" fill="#b4d9ec" d="M 104.5,248.5 C 107.764,250.094 110.431,252.427 112.5,255.5C 109.236,253.906 106.569,251.573 104.5,248.5 Z"/></g>
<g><path style="opacity:0.353" fill="#d9eff6" d="M 226.5,243.5 C 226.5,244.833 227.167,245.5 228.5,245.5C 224.673,248.995 220.34,251.661 215.5,253.5C 218.543,249.456 222.209,246.123 226.5,243.5 Z"/></g>
<g><path style="opacity:0.129" fill="#e2f1f7" d="M 145.5,249.5 C 147.674,249.75 149.341,250.75 150.5,252.5C 148.326,252.25 146.659,251.25 145.5,249.5 Z"/></g>
<g><path style="opacity:0.573" fill="#b8dff0" d="M 240.5,247.5 C 239.415,249.587 237.749,250.92 235.5,251.5C 236.585,249.413 238.251,248.08 240.5,247.5 Z"/></g>
<g><path style="opacity:1" fill="#36b8f4" d="M 258.5,226.5 C 260.176,227.183 260.843,228.517 260.5,230.5C 259.341,234.151 257.674,237.485 255.5,240.5C 254.292,241.234 252.959,241.567 251.5,241.5C 251.552,243.903 251.219,246.236 250.5,248.5C 249.094,248.973 248.427,249.973 248.5,251.5C 246.413,252.585 245.08,254.251 244.5,256.5C 244.5,257.167 244.167,257.5 243.5,257.5C 241.801,257.34 240.134,257.506 238.5,258C 237.167,258.667 237.167,259.333 238.5,260C 237.058,260.377 236.058,261.21 235.5,262.5C 235.39,260.646 235.057,258.646 234.5,256.5C 233.264,255.754 231.93,255.421 230.5,255.5C 230.5,255.167 230.5,254.833 230.5,254.5C 230.842,253.662 231.508,253.328 232.5,253.5C 234.027,253.573 235.027,252.906 235.5,251.5C 237.749,250.92 239.415,249.587 240.5,247.5C 244.167,245.833 246.833,243.167 248.5,239.5C 248.5,238.833 248.833,238.5 249.5,238.5C 251.262,237.738 252.262,236.404 252.5,234.5C 253.906,234.027 254.573,233.027 254.5,231.5C 255.906,231.027 256.573,230.027 256.5,228.5C 257.833,228.5 258.5,227.833 258.5,226.5 Z"/></g>
<g><path style="opacity:0.098" fill="#dff1f8" d="M 250.5,248.5 C 250.573,250.027 249.906,251.027 248.5,251.5C 248.427,249.973 249.094,248.973 250.5,248.5 Z"/></g>
<g><path style="opacity:0.675" fill="#cef2fc" d="M 79.5,245.5 C 84.1667,249.5 88.5,253.833 92.5,258.5C 86.8333,255.5 82.5,251.167 79.5,245.5 Z"/></g>
<g><path style="opacity:0.471" fill="#bfe4f0" d="M 235.5,251.5 C 235.027,252.906 234.027,253.573 232.5,253.5C 232.973,252.094 233.973,251.427 235.5,251.5 Z"/></g>
<g><path style="opacity:0.227" fill="#d3e9f3" d="M 150.5,252.5 C 152.153,252.66 153.486,253.326 154.5,254.5C 152.62,254.771 151.287,254.104 150.5,252.5 Z"/></g>
<g><path style="opacity:0.01" fill="#fcfdfe" d="M 215.5,253.5 C 214.998,255.085 213.998,255.585 212.5,255C 213.244,253.961 214.244,253.461 215.5,253.5 Z"/></g>
<g><path style="opacity:0.004" fill="#e2f3f9" d="M 75.5,252.5 C 77.785,254.118 79.785,256.118 81.5,258.5C 78.5222,257.522 76.5222,255.522 75.5,252.5 Z"/></g>
<g><path style="opacity:0.051" fill="#ddeff8" d="M 248.5,251.5 C 247.92,253.749 246.587,255.415 244.5,256.5C 245.08,254.251 246.413,252.585 248.5,251.5 Z"/></g>
<g><path style="opacity:0.804" fill="#b0def5" d="M 230.5,254.5 C 230.5,254.833 230.5,255.167 230.5,255.5C 228.784,257.025 226.784,258.025 224.5,258.5C 223.833,258.5 223.167,258.5 222.5,258.5C 224.849,256.659 227.515,255.326 230.5,254.5 Z"/></g>
<g><path style="opacity:0.008" fill="#f0f8fc" d="M 92.5,258.5 C 94.4044,258.738 95.7377,259.738 96.5,261.5C 94.5956,261.262 93.2623,260.262 92.5,258.5 Z"/></g>
<g><path style="opacity:0.298" fill="#bfdfef" d="M 112.5,255.5 C 115.089,256.419 117.089,258.086 118.5,260.5C 115.911,259.581 113.911,257.914 112.5,255.5 Z"/></g>
<g><path style="opacity:1" fill="#7bcdf1" d="M 243.5,257.5 C 241.167,260.5 238.5,263.167 235.5,265.5C 235.5,264.833 235.5,264.167 235.5,263.5C 235.5,263.167 235.5,262.833 235.5,262.5C 236.058,261.21 237.058,260.377 238.5,260C 237.167,259.333 237.167,258.667 238.5,258C 240.134,257.506 241.801,257.34 243.5,257.5 Z"/></g>
<g><path style="opacity:0.816" fill="#addcee" d="M 222.5,258.5 C 221.365,260.213 219.698,260.88 217.5,260.5C 218.78,259.069 220.447,258.402 222.5,258.5 Z"/></g>
<g><path style="opacity:0.18" fill="#d0e9f4" d="M 164.5,258.5 C 167.928,259.51 171.261,260.51 174.5,261.5C 170.622,261.976 167.288,260.976 164.5,258.5 Z"/></g>
<g><path style="opacity:0.369" fill="#c5e1ee" d="M 118.5,260.5 C 120.404,260.738 121.738,261.738 122.5,263.5C 120.596,263.262 119.262,262.262 118.5,260.5 Z"/></g>
<g><path style="opacity:0.259" fill="#bddfef" d="M 174.5,261.5 C 183.1,262.924 191.767,263.591 200.5,263.5C 191.688,265.074 183.022,264.407 174.5,261.5 Z"/></g>
<g><path style="opacity:0.98" fill="#c2effc" d="M 96.5,261.5 C 98.3885,262.604 100.055,263.937 101.5,265.5C 98.4535,265.817 96.7868,264.484 96.5,261.5 Z"/></g>
<g><path style="opacity:1" fill="#5bbeed" d="M 156.5,255.5 C 159.397,256.129 162.064,257.129 164.5,258.5C 167.288,260.976 170.622,261.976 174.5,261.5C 183.022,264.407 191.688,265.074 200.5,263.5C 203.096,262.735 205.763,262.401 208.5,262.5C 208.423,263.75 207.756,264.583 206.5,265C 193.716,266.058 181.049,265.391 168.5,263C 164.869,260.525 160.869,259.025 156.5,258.5C 156.5,257.5 156.5,256.5 156.5,255.5 Z"/></g>
<g><path style="opacity:0.451" fill="#d3edf8" d="M 85.5,262.5 C 88.1073,263.316 90.1073,264.983 91.5,267.5C 88.9108,266.581 86.9108,264.914 85.5,262.5 Z"/></g>
<g><path style="opacity:0.314" fill="#b9dcec" d="M 124.5,264.5 C 126.027,264.427 127.027,265.094 127.5,266.5C 125.973,266.573 124.973,265.906 124.5,264.5 Z"/></g>
<g><path style="opacity:1" fill="#08b4fb" d="M 230.5,255.5 C 231.93,255.421 233.264,255.754 234.5,256.5C 235.057,258.646 235.39,260.646 235.5,262.5C 235.5,262.833 235.5,263.167 235.5,263.5C 232.181,264.89 228.848,266.39 225.5,268C 224.62,269.356 224.286,270.856 224.5,272.5C 222.801,272.66 221.134,272.494 219.5,272C 219.957,271.586 220.291,271.086 220.5,270.5C 219.311,269.571 217.978,269.238 216.5,269.5C 216.238,268.022 216.571,266.689 217.5,265.5C 220.07,264.252 222.737,263.252 225.5,262.5C 224.754,261.264 224.421,259.93 224.5,258.5C 226.784,258.025 228.784,257.025 230.5,255.5 Z"/></g>
<g><path style="opacity:1" fill="#40baf0" d="M 235.5,263.5 C 235.5,264.167 235.5,264.833 235.5,265.5C 233.5,265.5 232.5,266.5 232.5,268.5C 232.158,269.338 231.492,269.672 230.5,269.5C 228.973,269.427 227.973,270.094 227.5,271.5C 226.391,271.557 225.391,271.89 224.5,272.5C 224.286,270.856 224.62,269.356 225.5,268C 228.848,266.39 232.181,264.89 235.5,263.5 Z"/></g>
<g><path style="opacity:0.047" fill="#e4f3f9" d="M 235.5,265.5 C 234.833,266.833 233.833,267.833 232.5,268.5C 232.5,266.5 233.5,265.5 235.5,265.5 Z"/></g>
<g><path style="opacity:0.141" fill="#dbecf5" d="M 127.5,266.5 C 129.027,266.427 130.027,267.094 130.5,268.5C 128.973,268.573 127.973,267.906 127.5,266.5 Z"/></g>
<g><path style="opacity:1" fill="#afe2f6" d="M 91.5,267.5 C 95.6147,267.62 98.2814,269.62 99.5,273.5C 96.4669,271.984 93.8003,269.984 91.5,267.5 Z"/></g>
<g><path style="opacity:0.584" fill="#c6f0fa" d="M 101.5,265.5 C 103.54,267.177 105.54,268.844 107.5,270.5C 104.243,270.236 102.243,268.57 101.5,265.5 Z"/></g>
<g><path style="opacity:0.043" fill="#e0f0f7" d="M 230.5,269.5 C 230.027,270.906 229.027,271.573 227.5,271.5C 227.973,270.094 228.973,269.427 230.5,269.5 Z"/></g>
<g><path style="opacity:0.18" fill="#d7e9f3" d="M 134.5,270.5 C 136.027,270.427 137.027,271.094 137.5,272.5C 135.973,272.573 134.973,271.906 134.5,270.5 Z"/></g>
<g><path style="opacity:0.847" fill="#cbf0fc" d="M 107.5,270.5 C 111.025,271.759 114.025,273.759 116.5,276.5C 115.5,276.5 114.5,276.5 113.5,276.5C 113.167,275.5 112.5,274.833 111.5,274.5C 109.5,273.833 108.167,272.5 107.5,270.5 Z"/></g>
<g><path style="opacity:0.776" fill="#b5dbef" d="M 137.5,272.5 C 139.698,272.12 141.365,272.787 142.5,274.5C 140.447,274.598 138.78,273.931 137.5,272.5 Z"/></g>
<g><path style="opacity:0.035" fill="#e4f2f9" d="M 227.5,271.5 C 227.027,272.906 226.027,273.573 224.5,273.5C 224.5,273.167 224.5,272.833 224.5,272.5C 225.391,271.89 226.391,271.557 227.5,271.5 Z"/></g>
<g><path style="opacity:0.851" fill="#a9d7ec" d="M 142.5,274.5 C 145.079,274.394 147.412,275.061 149.5,276.5C 149.5,276.833 149.5,277.167 149.5,277.5C 146.759,277.293 144.426,276.293 142.5,274.5 Z"/></g>
<g><path style="opacity:0.133" fill="#d8ecf4" d="M 220.5,275.5 C 219.089,277.539 217.089,278.539 214.5,278.5C 216.181,276.992 218.181,275.992 220.5,275.5 Z"/></g>
<g><path style="opacity:1" fill="#9be0f8" d="M 99.5,273.5 C 100.873,273.343 102.207,273.51 103.5,274C 105.943,276.9 108.61,277.067 111.5,274.5C 112.5,274.833 113.167,275.5 113.5,276.5C 111.744,277.552 111.077,279.219 111.5,281.5C 107.148,279.327 103.148,276.66 99.5,273.5 Z"/></g>
<g><path style="opacity:0.808" fill="#afddf3" d="M 152.5,278.5 C 155.01,278.054 157.01,278.72 158.5,280.5C 156.214,280.405 154.214,279.738 152.5,278.5 Z"/></g>
<g><path style="opacity:0.114" fill="#eff8fb" d="M 120.5,278.5 C 122.153,278.66 123.486,279.326 124.5,280.5C 122.62,280.771 121.287,280.104 120.5,278.5 Z"/></g>
<g><path style="opacity:1" fill="#75dcf6" d="M 113.5,276.5 C 114.5,276.5 115.5,276.5 116.5,276.5C 118.153,276.66 119.486,277.326 120.5,278.5C 121.287,280.104 122.62,280.771 124.5,280.5C 126.331,282.776 128.664,284.609 131.5,286C 129.645,286.422 127.811,286.922 126,287.5C 123.681,286.129 121.181,285.462 118.5,285.5C 116.973,282.932 114.639,281.599 111.5,281.5C 111.077,279.219 111.744,277.552 113.5,276.5 Z"/></g>
<g><path style="opacity:0.984" fill="#b7e5f3" d="M 111.5,281.5 C 114.639,281.599 116.973,282.932 118.5,285.5C 115.669,284.921 113.336,283.588 111.5,281.5 Z"/></g>
<g><path style="opacity:0.278" fill="#c9e7f3" d="M 158.5,280.5 C 161.495,280.294 164.162,280.96 166.5,282.5C 163.505,282.706 160.838,282.04 158.5,280.5 Z"/></g>
<g><path style="opacity:1" fill="#46baed" d="M 149.5,276.5 C 157.811,277.981 166.144,279.481 174.5,281C 183.16,281.5 191.827,281.666 200.5,281.5C 198.708,282.309 196.708,282.809 194.5,283C 186.841,283.5 179.174,283.666 171.5,283.5C 169.585,283.784 167.919,283.451 166.5,282.5C 164.162,280.96 161.495,280.294 158.5,280.5C 157.01,278.72 155.01,278.054 152.5,278.5C 151.209,278.737 150.209,278.404 149.5,277.5C 149.5,277.167 149.5,276.833 149.5,276.5 Z"/></g>
<g><path style="opacity:0.118" fill="#e7f3f8" d="M 200.5,281.5 C 202.5,281.5 204.5,281.5 206.5,281.5C 203.372,282.632 200.038,283.465 196.5,284C 187.99,284.823 179.656,284.657 171.5,283.5C 179.174,283.666 186.841,283.5 194.5,283C 196.708,282.809 198.708,282.309 200.5,281.5 Z"/></g>
<g><path style="opacity:1" fill="#b2e8f7" d="M 124.5,280.5 C 129.689,282.597 134.689,284.93 139.5,287.5C 135.818,287.335 132.152,287.501 128.5,288C 134.062,290.252 139.395,292.752 144.5,295.5C 135.343,293.247 126.676,289.914 118.5,285.5C 121.181,285.462 123.681,286.129 126,287.5C 127.811,286.922 129.645,286.422 131.5,286C 128.664,284.609 126.331,282.776 124.5,280.5 Z"/></g>
<g><path style="opacity:0.788" fill="#cdf3fb" d="M 139.5,287.5 C 141.786,287.595 143.786,288.262 145.5,289.5C 142.918,289.975 140.918,289.308 139.5,287.5 Z"/></g>
<g><path style="opacity:0.784" fill="#cbf0fb" d="M 145.5,289.5 C 147.786,289.595 149.786,290.262 151.5,291.5C 148.918,291.975 146.918,291.308 145.5,289.5 Z"/></g>
<g><path style="opacity:1" fill="#76dbf5" d="M 139.5,287.5 C 140.918,289.308 142.918,289.975 145.5,289.5C 146.918,291.308 148.918,291.975 151.5,291.5C 151.611,292.117 151.944,292.617 152.5,293C 155.817,293.498 159.15,293.665 162.5,293.5C 165.946,294.687 169.613,295.354 173.5,295.5C 175.969,296.317 178.635,296.817 181.5,297C 169.101,297.803 156.767,297.303 144.5,295.5C 139.395,292.752 134.062,290.252 128.5,288C 132.152,287.501 135.818,287.335 139.5,287.5 Z"/></g>
<g><path style="opacity:0.765" fill="#d1f3fb" d="M 151.5,291.5 C 155.36,291.808 159.026,292.475 162.5,293.5C 159.15,293.665 155.817,293.498 152.5,293C 151.944,292.617 151.611,292.117 151.5,291.5 Z"/></g>
<g><path style="opacity:0.69" fill="#dbeff9" d="M 189.5,297.5 C 191.031,296.075 190.698,295.409 188.5,295.5C 188.5,295.167 188.5,294.833 188.5,294.5C 196.5,292.668 204.5,291.168 212.5,290C 206.252,292.377 200.085,294.877 194,297.5C 192.395,297.438 190.895,297.438 189.5,297.5 Z"/></g>
<g><path style="opacity:0.054" fill="#eef6fa" d="M 162.5,293.5 C 171.146,294.253 179.812,294.587 188.5,294.5C 188.5,294.833 188.5,295.167 188.5,295.5C 183.5,295.5 178.5,295.5 173.5,295.5C 169.613,295.354 165.946,294.687 162.5,293.5 Z"/></g>
<g><path style="opacity:0.864" fill="#bceafb" d="M 144.5,295.5 C 156.767,297.303 169.101,297.803 181.5,297C 178.635,296.817 175.969,296.317 173.5,295.5C 178.5,295.5 183.5,295.5 188.5,295.5C 190.698,295.409 191.031,296.075 189.5,297.5C 186.99,297.927 184.657,298.593 182.5,299.5C 175.167,299.5 167.833,299.5 160.5,299.5C 155.139,298.294 149.806,296.961 144.5,295.5 Z"/></g>
</svg>
